<svg width="175" height="33" viewBox="0 0 175 33" fill="none" xmlns="http://www.w3.org/2000/svg">
<g clip-path="url(#clip0_4001_1819)">
<path d="M85.7655 32.4075C86.4831 30.7702 87.1995 29.1318 87.9147 27.4921C88.1755 26.8959 88.4274 26.2944 88.704 25.7052C88.7487 25.6193 88.7721 25.5237 88.7721 25.4266C88.7721 25.3296 88.7487 25.234 88.704 25.1481C86.6581 20.4279 84.6163 15.7072 82.5786 10.9859C82.1922 10.0939 81.8064 9.20195 81.4212 8.30997C81.3895 8.23189 81.3243 8.15914 81.3683 8.03493C81.8193 8.05799 82.2791 7.98524 82.7319 8.08994C83.06 8.15388 83.367 8.2996 83.6249 8.51379C83.8828 8.72797 84.0833 9.0038 84.2082 9.3161C85.9111 13.2815 87.6258 17.2445 89.3523 21.2051C89.5973 21.7256 89.7357 22.2905 89.7592 22.8661C89.7656 22.9015 89.7762 22.9361 89.7909 22.969C89.8767 22.8815 89.9376 22.7724 89.9671 22.6531C91.8826 18.2489 93.7993 13.8452 95.7172 9.44209C96.1294 8.49274 96.8324 8.02251 97.8541 8.0367H98.6328C98.6391 8.16786 98.6026 8.29749 98.5289 8.40579C95.2733 15.8977 92.0171 23.3878 88.7603 30.8761C88.7339 30.9364 88.7022 30.995 88.6811 31.0535C88.576 31.3702 88.3921 31.6544 88.1469 31.879C87.9017 32.1036 87.6034 32.2611 87.2805 32.3365C87.2471 32.3471 87.2241 32.3613 87.2171 32.3986L85.7655 32.4075Z" fill="#030303"/>
<path d="M32.806 0.000174438H45.2611C45.5923 0.000174438 45.9217 0.000174438 46.2511 0.000174438C46.383 -0.00399804 46.5148 0.0115498 46.6422 0.046311C46.7521 0.0647266 46.8519 0.121665 46.9241 0.207064C46.9964 0.292464 47.0363 0.400826 47.0368 0.513C47.0411 0.578584 47.0411 0.644384 47.0368 0.709968C46.9998 2.08164 47.0368 3.4551 46.9593 4.825C46.8965 6.28915 46.5292 7.72371 45.8812 9.03585C44.6744 11.3906 42.7595 12.8403 40.2174 13.4721C39.2615 13.6834 38.2857 13.7893 37.3071 13.7879C34.8671 13.8571 32.4255 13.8145 29.9855 13.811C28.1921 13.811 26.3993 13.811 24.6071 13.811H12.6013C12.226 13.811 11.8526 13.8234 11.4791 13.811C10.8925 13.7897 10.6493 13.5519 10.6758 12.9592C10.7409 11.5663 10.6951 10.1715 10.7533 8.77855C10.7973 7.69256 10.9101 6.6119 11.3012 5.58448C12.2137 3.21909 13.8961 1.60963 16.2162 0.653185C17.2268 0.239415 18.3088 0.0319264 19.3996 0.0427621C21.038 0.0427621 22.6781 0.053409 24.3147 0.0303407C27.0523 0.000174437 29.7917 0.0321152 32.806 0.000174438Z" fill="#A243DC"/>
<path d="M14.5285 16.7279H27.9842C28.1495 16.7231 28.315 16.7308 28.4792 16.751C28.5736 16.7579 28.6623 16.7985 28.7295 16.8655C28.7967 16.9326 28.8379 17.0216 28.8457 17.1165C28.8688 17.2584 28.8771 17.4023 28.8703 17.546C28.7999 18.6284 28.8509 19.7144 28.8157 20.7968C28.7787 22.0052 28.673 23.2066 28.2678 24.3564C27.1703 27.4689 24.9929 29.3889 21.8359 30.2122C20.8811 30.4607 19.8981 30.4802 18.9239 30.5032C16.4939 30.56 14.0652 30.5665 11.6376 30.5228C10.6158 30.5032 9.59402 30.5103 8.57401 30.4287C6.65102 30.2903 4.82134 29.5404 3.34876 28.287C1.87619 27.0337 0.836792 25.3417 0.380434 23.455C0.197822 22.6234 0.0875928 21.7773 0.0509999 20.9264C-0.00713551 20.119 0.105612 19.3187 0.0686167 18.5131C0.0732079 18.237 0.0549406 17.961 0.0140047 17.6879C-0.0139617 17.443 0.0433219 17.1959 0.176079 16.9888C0.218742 16.9168 0.27834 16.8564 0.349616 16.8131C0.420893 16.7698 0.501658 16.7448 0.584789 16.7403C0.726761 16.7223 0.869787 16.714 1.01288 16.7155C3.26548 16.7155 5.51925 16.7208 7.7742 16.7315C10.0292 16.7421 12.2829 16.7421 14.5355 16.7315L14.5285 16.7279Z" fill="#A243DC"/>
<path d="M77.193 25.9395C77.1626 25.8239 77.1542 25.7034 77.1683 25.5846C77.1683 22.364 77.1683 19.1433 77.1683 15.9226C77.1895 14.9041 77.0637 13.888 76.7949 12.906C76.6713 12.4812 76.4899 12.0757 76.2558 11.7011C75.6533 10.7588 74.813 10.1928 73.689 10.1165C72.5536 10.0145 71.4137 10.2528 70.4123 10.8014C69.8696 11.0932 69.4048 11.5126 69.0576 12.024C68.7225 12.5214 68.5439 13.1088 68.5449 13.7098C68.5449 17.661 68.5449 21.6122 68.5449 25.5633C68.5449 26.0265 68.6101 25.9608 68.1432 25.9644C67.6147 25.9644 67.0862 25.9644 66.5577 25.9644C66.4221 25.9644 66.3481 25.9324 66.3657 25.7869C66.3657 25.7106 66.3657 25.6326 66.3657 25.5563C66.3657 22.2238 66.3657 18.8919 66.3657 15.5606C66.3727 14.439 66.1496 13.328 65.7104 12.2973C65.4639 11.6902 65.0702 11.1552 64.5653 10.7411C64.1194 10.3708 63.5689 10.1516 62.9921 10.1147C61.7853 10.0419 60.6226 10.2158 59.5639 10.8493C58.7553 11.332 58.1228 11.9673 57.8427 12.9024C57.7695 13.1458 57.7327 13.3987 57.7335 13.653C57.7335 17.6267 57.7335 21.6003 57.7335 25.574C57.7335 25.9715 57.7335 25.9715 57.3283 25.9715C56.8227 25.9715 56.3171 25.9715 55.8115 25.9715C55.5825 25.9715 55.5825 25.9715 55.5772 25.7319C55.5772 25.6769 55.5772 25.6201 55.5772 25.5651C55.5772 19.9093 55.5772 14.2534 55.5772 8.5975C55.5772 8.09533 55.5279 8.18405 55.9947 8.17873C56.414 8.17873 56.8315 8.17873 57.249 8.17873C57.3242 8.17181 57.3996 8.19017 57.4633 8.23094C57.527 8.27171 57.5756 8.33259 57.6014 8.40409C57.6901 8.59495 57.7341 8.8038 57.73 9.01451C57.73 9.467 57.73 9.91772 57.73 10.356C57.767 10.3862 57.7881 10.3862 57.8022 10.3649C58.4012 9.44216 59.2503 8.83706 60.2421 8.41296C61.5001 7.85097 62.9123 7.7444 64.2394 8.1113C65.8249 8.55492 66.8819 9.58767 67.4738 11.1279C67.5055 11.2095 67.5319 11.2947 67.5619 11.3781C67.567 11.3875 67.5728 11.3964 67.5795 11.4047C67.6905 11.3497 67.7081 11.2273 67.7557 11.1368C68.0968 10.4943 68.5361 9.90988 69.0576 9.4049C69.8191 8.67606 70.7789 8.19234 71.8146 8.01547C72.8976 7.80473 74.0118 7.81801 75.0895 8.05451C76.8301 8.45555 77.9858 9.5504 78.6481 11.2007C78.9598 12.029 79.1572 12.8966 79.2348 13.779C79.3229 14.6841 79.3605 15.5935 79.3475 16.5028C79.3475 19.5254 79.3475 22.5467 79.3475 25.5669C79.3475 26.0283 79.4039 25.9608 78.9388 25.9644C78.4737 25.9679 77.9699 25.9644 77.4872 25.9644C77.3886 25.9795 77.2878 25.971 77.193 25.9395Z" fill="#030303"/>
<path d="M141.442 16.0094C141.331 14.801 141.155 13.6369 140.668 12.5421C140.552 12.2797 140.417 12.0259 140.265 11.7826C139.631 10.7658 138.702 10.237 137.533 10.0897C136.189 9.91031 134.827 10.2254 133.696 10.977C133.548 11.0728 133.394 11.1544 133.25 11.2609C132.595 11.7116 131.925 11.6602 131.259 11.3017C131.011 11.1485 130.772 10.9827 130.541 10.8049C130.528 10.6789 130.616 10.6274 130.667 10.5671C131.62 9.3693 132.91 8.69322 134.326 8.26025C135.876 7.75801 137.542 7.74562 139.099 8.22476C139.79 8.43579 140.432 8.78348 140.989 9.24751C141.545 9.71154 142.004 10.2826 142.338 10.9273C142.914 12.0342 143.288 13.2363 143.441 14.4763C143.574 15.4969 143.633 16.5258 143.617 17.555C143.617 20.2321 143.617 22.9098 143.617 25.5881C143.617 26.0086 143.658 25.9536 143.244 25.9554C142.83 25.9572 142.43 25.943 142.025 25.9554C141.945 25.9665 141.863 25.9503 141.794 25.9095C141.724 25.8686 141.669 25.8055 141.639 25.73C141.497 25.4566 141.426 25.1513 141.433 24.8428C141.433 24.5802 141.433 24.3193 141.433 24.0532C141.292 24.0532 141.234 24.1383 141.162 24.1951C139.33 25.6308 137.045 26.3512 134.728 26.2234C133.545 26.1841 132.397 25.8041 131.421 25.1285C129.913 24.0638 129.177 22.63 129.297 20.7633C129.408 19.0118 130.223 17.7094 131.731 16.8381C132.268 16.5339 132.839 16.2956 133.431 16.1283C134.534 15.8242 135.672 15.6661 136.816 15.6581C138.223 15.641 139.629 15.7478 141.017 15.9775C141.116 15.9934 141.215 16.0041 141.311 16.013C141.355 16.0153 141.398 16.0141 141.442 16.0094ZM141.442 20.0659C141.442 19.5123 141.442 18.9592 141.442 18.4067C141.442 18.0962 141.442 18.098 141.149 18.0643C140.066 17.9383 138.979 17.8868 137.892 17.8602C136.705 17.8042 135.516 17.8948 134.351 18.1299C133.659 18.2657 133.005 18.5549 132.438 18.9764C132.022 19.3086 131.714 19.7583 131.553 20.2679C131.393 20.7775 131.387 21.3237 131.536 21.8368C131.818 22.8181 132.505 23.4161 133.424 23.7728C134.293 24.1099 135.186 24.094 136.09 23.9502C137.933 23.6521 139.638 22.9654 141.269 22.0711C141.328 22.0451 141.377 22.0007 141.409 21.9444C141.441 21.8881 141.453 21.823 141.445 21.7587C141.445 21.1945 141.451 20.6302 141.451 20.0659H141.442Z" fill="#030303"/>
<path d="M175 15.2784C174.973 15.3741 174.966 15.4742 174.977 15.5729C174.977 19.0036 174.977 22.4278 174.977 25.8454C174.977 25.8774 174.977 25.9111 174.977 25.943C174.32 25.9927 173.661 25.9519 173.002 25.9643C172.907 25.9643 172.862 25.9253 172.863 25.8277C172.865 25.7301 172.863 25.6502 172.863 25.5633C172.863 22.2308 172.863 18.8995 172.863 15.5694C172.883 14.6075 172.748 13.6487 172.463 12.7302C171.935 11.1172 170.799 10.2672 169.137 10.0898C167.482 9.88209 165.811 10.3195 164.465 11.3124C163.851 11.7463 163.344 12.3171 162.984 12.9804C162.77 13.3811 162.659 13.8297 162.663 14.2847C162.663 18.0466 162.663 21.8091 162.663 25.5722C162.663 26.0442 162.709 25.9661 162.254 25.9696C161.749 25.9696 161.243 25.9696 160.738 25.9696C160.512 25.9696 160.512 25.9696 160.507 25.7319C160.507 25.6768 160.507 25.6201 160.507 25.5651V2.05492C160.507 1.65033 160.507 1.65033 160.901 1.65033C161.296 1.65033 161.671 1.65033 162.055 1.65033C162.137 1.64428 162.218 1.66196 162.29 1.70129C162.362 1.74062 162.421 1.79993 162.461 1.87214C162.607 2.10823 162.68 2.38336 162.67 2.66179C162.67 3.20478 162.67 3.746 162.67 4.28899C162.67 6.30007 162.67 8.31411 162.67 10.3311C162.653 10.4498 162.661 10.571 162.695 10.686C162.718 10.686 162.748 10.686 162.753 10.686C163.281 9.7757 164.072 9.15463 164.999 8.70036C166.714 7.84431 168.678 7.63835 170.531 8.1201C172.381 8.57792 173.612 9.79522 174.325 11.552C174.729 12.5466 174.952 13.6063 174.984 14.6804C174.984 14.8809 174.993 15.0832 175 15.2784Z" fill="#030303"/>
<path d="M100.481 22.284C100.788 22.0395 101.154 21.8811 101.542 21.8247C101.929 21.7683 102.325 21.8159 102.688 21.9628C102.893 22.0461 103.078 22.1705 103.233 22.3283C103.63 22.7113 104.066 23.0515 104.533 23.3433C105.112 23.708 105.768 23.9333 106.448 24.0017C107.607 24.1046 108.754 24.0868 109.869 23.7053C110.636 23.4547 111.333 23.0254 111.904 22.4525C112.68 21.6807 113.123 20.632 113.137 19.5335C113.158 18.9467 113.098 18.3598 112.961 17.7892C112.755 16.9529 112.254 16.2207 111.551 15.729C111.038 15.3672 110.476 15.0821 109.881 14.8826C108.264 14.313 106.682 13.6546 105.1 12.9963C104.502 12.7474 103.935 12.4282 103.411 12.0452C102.85 11.6488 102.385 11.1309 102.05 10.5296C101.715 9.92832 101.517 9.25895 101.473 8.57075C101.377 7.767 101.43 6.95226 101.63 6.1681C101.926 5.12931 102.504 4.19415 103.298 3.46734C104.987 1.88804 106.997 1.20664 109.288 1.47459C110.697 1.64139 111.93 2.29085 112.987 3.21891C113.368 3.55504 113.732 3.91039 114.078 4.2836C114.234 4.4504 114.234 4.46105 114.039 4.59591C113.727 4.82127 113.428 5.06437 113.029 5.12825C112.752 5.18696 112.466 5.18732 112.188 5.1293C111.911 5.07128 111.649 4.95614 111.417 4.7911C111.296 4.71174 111.178 4.62585 111.065 4.5338C110.234 3.79562 109.247 3.54009 108.164 3.59865C106.833 3.63687 105.568 4.1912 104.633 5.146C103.543 6.26747 103.328 7.60721 103.738 9.07648C103.891 9.56674 104.195 9.99544 104.605 10.3009C105.059 10.6514 105.559 10.9368 106.09 11.1491C107.366 11.6814 108.682 12.1179 109.966 12.6095C110.595 12.8402 111.212 13.1044 111.814 13.4009C112.324 13.6596 112.805 13.9738 113.248 14.3378C113.981 14.9305 114.526 15.727 114.814 16.6287C115.281 18.0909 115.409 19.5814 115.024 21.0649C114.537 22.9494 113.368 24.3104 111.676 25.2083C110.128 26.0264 108.465 26.2978 106.73 26.1807C105.418 26.1099 104.145 25.7057 103.03 25.006C102.003 24.3347 101.143 23.4335 100.518 22.3727C100.503 22.3442 100.491 22.3145 100.481 22.284Z" fill="#030303"/>
<path d="M155.998 10.5582C155.727 10.8117 155.432 11.0387 155.117 11.236C154.94 11.3485 154.736 11.4134 154.527 11.4246C154.317 11.4358 154.108 11.3929 153.92 11.2999C153.643 11.1657 153.374 11.0158 153.114 10.851C152.61 10.5103 152.027 10.3057 151.421 10.2565C150.463 10.2086 149.617 10.4766 148.936 11.1739C148.162 11.9636 148.247 12.991 148.76 13.7239C149.054 14.127 149.441 14.4527 149.887 14.6732C150.539 14.992 151.214 15.2578 151.908 15.4682C152.807 15.7557 153.675 16.1338 154.499 16.5968C154.986 16.8776 155.433 17.2239 155.827 17.626C157.332 19.1627 157.374 21.3524 156.596 22.9175C155.817 24.4826 154.57 25.4408 152.949 25.9146C150.59 26.6049 148.451 26.1595 146.598 24.495C146.421 24.3285 146.255 24.1506 146.101 23.9626C145.973 23.8136 145.86 23.6486 145.738 23.4906C146.705 22.8004 147.546 22.5466 148.613 23.2919C150.199 24.3956 152.313 24.1383 153.609 23.2156C153.952 22.9915 154.243 22.6959 154.462 22.3487C154.681 22.0015 154.824 21.6109 154.88 21.2033C154.948 20.8148 154.921 20.4153 154.801 20.0396C154.681 19.6639 154.473 19.3233 154.193 19.0473C153.813 18.6926 153.379 18.4025 152.907 18.1885C152.199 17.8606 151.473 17.5738 150.733 17.3296C150.216 17.1433 149.706 16.941 149.195 16.7405C148.756 16.5637 148.342 16.3312 147.962 16.0485C147.442 15.683 147.015 15.201 146.712 14.6405C146.41 14.08 146.241 13.4564 146.219 12.8189C146.108 11.0284 146.869 9.70289 148.39 8.84404C149.838 8.02778 151.384 7.77935 152.988 8.3809C153.823 8.70072 154.587 9.1831 155.237 9.80049C155.486 10.0365 155.732 10.292 155.998 10.5582Z" fill="#030303"/>
<path d="M116.717 10.1428C116.717 9.72225 116.706 9.29283 116.717 8.8634C116.725 8.61497 116.909 8.47479 117.117 8.37897C117.421 8.24299 117.749 8.1694 118.082 8.16248C118.554 8.14474 119.026 8.14651 119.5 8.13764C119.974 8.12877 119.911 8.20507 119.911 7.73838C119.911 6.5335 119.911 5.32685 119.911 4.12021C119.907 3.49069 120.051 2.86923 120.332 2.30668C120.355 2.24027 120.4 2.1837 120.459 2.14604C120.518 2.10839 120.588 2.09185 120.657 2.09907C121.117 2.11149 121.579 2.09907 122.032 2.09907C122.074 2.22089 122.086 2.35122 122.067 2.47881C122.067 4.25329 122.067 6.02423 122.067 7.79161C122.067 7.86792 122.067 7.94599 122.067 8.02407C122.067 8.10215 122.116 8.16071 122.21 8.15893C122.303 8.15716 122.363 8.15893 122.44 8.15893H126.991C127.068 8.15893 127.146 8.15893 127.222 8.15893C127.331 8.15893 127.382 8.1962 127.382 8.31154C127.382 8.88647 127.382 9.462 127.382 10.0381C127.382 10.1357 127.341 10.1783 127.244 10.1765H122.465C122.387 10.1765 122.31 10.1765 122.234 10.1765C122.102 10.1765 122.058 10.2369 122.069 10.354C122.069 10.409 122.069 10.464 122.069 10.519C122.069 14.249 122.069 17.9783 122.069 21.7071C122.068 22.0621 122.131 22.4143 122.254 22.747C122.682 23.9181 123.636 24.4327 124.84 24.1417C125.055 24.0903 125.27 24.0477 125.484 24.0033C125.781 23.9319 126.09 23.9411 126.381 24.03C126.673 24.1189 126.935 24.2842 127.142 24.509C127.799 25.194 127.768 25.0574 127.015 25.4424C126.243 25.8483 125.403 26.1053 124.537 26.2001C122.423 26.4113 120.506 25.3129 120.016 22.9191C119.941 22.528 119.906 22.1302 119.912 21.732C119.912 18.0126 119.912 14.2945 119.912 10.5776C119.912 10.1073 119.951 10.1747 119.505 10.173C118.693 10.173 117.879 10.173 117.065 10.173C116.948 10.1898 116.829 10.1795 116.717 10.1428Z" fill="#030303"/>
</g>
<defs>
<clipPath id="clip0_4001_1819">
<rect width="175" height="32.4074" fill="white"/>
</clipPath>
</defs>
</svg>
