<svg width="37" height="49" viewBox="0 0 37 49" fill="none" xmlns="http://www.w3.org/2000/svg">
<path d="M10.3178 33.888C10.3045 33.1572 10.7736 32.4168 11.7286 31.838C13.6387 30.6828 16.7727 30.6201 18.7286 31.6969C19.7065 32.2359 20.2033 32.957 20.2178 33.689C20.2238 33.9724 20.2455 35.0866 20.2516 35.3711C20.266 36.1019 19.7958 36.8435 18.8407 37.4211C16.9307 38.5763 13.7954 38.639 11.8396 37.5622C10.8628 37.0244 10.3648 36.3021 10.3515 35.5701C10.3467 35.2879 10.3238 34.1725 10.3178 33.888Z" fill="white"/>
<path d="M28.8601 20.6767C26.4822 27.3824 20.3191 29.524 20.3951 33.3249C20.4107 34.0821 19.9236 34.8515 18.9324 35.4496C16.9511 36.6494 13.699 36.7145 11.6695 35.5955C10.6566 35.0372 10.1393 34.2871 10.1248 33.5299C10.0766 31.1471 7.60581 29.5144 5.11573 27.0014C2.62566 24.4884 0.121106 21.0927 0.00293231 15.1841C-0.0525516 12.3885 0.680332 9.63372 2.11767 7.23527C3.55501 4.83682 5.6387 2.8916 8.13018 1.62234C10.6217 0.353066 13.4202 -0.188948 16.2054 0.0583519C18.9906 0.305652 21.6499 1.33227 23.8787 3.02066L25.4946 6.99032L20.0454 5.24907L23.6352 7.60168L15.6332 11.0022L25.3185 12.1706L23.6231 18.5122L27.7676 15.3215L28.8601 20.6767Z" fill="white"/>
<path d="M18.3318 35.1457C19.9899 34.1436 19.9585 32.5736 18.2619 31.6391C16.5653 30.7045 13.8461 30.7576 12.188 31.7597C10.53 32.7617 10.5614 34.3317 12.258 35.2675C13.9546 36.2032 16.6738 36.1477 18.3318 35.1457Z" fill="white"/>
<path opacity="0.25" d="M11.5225 34.7273C11.7409 34.9412 11.9886 35.1231 12.258 35.2675C13.9559 36.202 16.6751 36.1478 18.3319 35.1469C18.595 34.9916 18.8349 34.8 19.0445 34.5778C18.8271 34.3628 18.5798 34.1804 18.3102 34.0363C16.6124 33.1006 13.8932 33.1561 12.2351 34.1569C11.9712 34.3115 11.7311 34.5036 11.5225 34.7273Z" fill="white"/>
<path d="M11.5225 34.7273C11.7409 34.9412 11.9886 35.1231 12.258 35.2675C13.9559 36.202 16.6751 36.1478 18.3319 35.1469C18.595 34.9916 18.8349 34.8 19.0445 34.5778C18.8271 34.3628 18.5798 34.1804 18.3102 34.0363C16.6124 33.1006 13.8932 33.1561 12.2351 34.1569C11.9712 34.3115 11.7311 34.5036 11.5225 34.7273Z" fill="white"/>
<path opacity="0.5" d="M4.20286 19.9327C4.27722 20.1518 4.30427 20.3841 4.28224 20.6144C4.26021 20.8447 4.18959 21.0677 4.07504 21.2688C3.83387 21.7209 3.19839 21.8512 2.77393 21.5931C2.55489 21.4586 2.37303 21.2714 2.24496 21.0486C2.11689 20.8257 2.04669 20.5743 2.04077 20.3173C2.04077 19.7723 2.37961 19.1826 2.98374 19.1115C3.54567 19.0464 4.04248 19.4805 4.20286 19.9327Z" fill="white"/>
<path d="M15.4363 42.3563C16.9831 42.3293 18.2244 41.5836 18.2088 40.6907C18.1933 39.7977 16.9267 39.0957 15.3799 39.1227C13.833 39.1497 12.5917 39.8955 12.6073 40.7884C12.6229 41.6814 13.8895 42.3833 15.4363 42.3563Z" fill="#263238"/>
<path d="M12.7681 41.316L13.2227 41.3087C13.35 41.0597 13.5497 40.855 13.7955 40.7215C14.6757 40.1921 16.1179 40.1668 17.0163 40.6648C17.2659 40.7906 17.4724 40.9879 17.6096 41.2315L18.063 41.2243L17.5565 42.0588C17.4266 42.2511 17.2536 42.4105 17.0512 42.5242C16.171 43.0536 14.7288 43.0789 13.8304 42.5809C13.624 42.4738 13.4453 42.3202 13.3083 42.1323L12.7681 41.316Z" fill="#263238"/>
<path d="M18.3427 41.0953C19.9404 40.1306 19.9103 38.616 18.2751 37.7189C16.64 36.8217 14.0173 36.8748 12.4183 37.8395C10.8194 38.8041 10.8507 40.3187 12.4858 41.2158C14.121 42.113 16.7437 42.0623 18.3427 41.0953Z" fill="#455A64"/>
<path d="M18.4404 40.5454C20.0984 39.5433 20.0671 37.9733 18.3704 37.0388C16.6738 36.1043 13.9534 36.1585 12.2954 37.1594C10.6373 38.1602 10.6699 39.7314 12.3665 40.666C14.0631 41.6005 16.7823 41.5475 18.4404 40.5454Z" fill="#37474F"/>
<path d="M18.5042 39.9341C20.2045 38.9067 20.1719 37.2969 18.4331 36.3383C16.6943 35.3796 13.9051 35.4351 12.2049 36.4589C10.5046 37.4826 10.5396 39.1057 12.2772 40.0583C14.0149 41.0109 16.81 40.9615 18.5042 39.9341Z" fill="#455A64"/>
<path d="M18.5693 39.3215C20.3118 38.2688 20.278 36.6192 18.4958 35.6377C16.7135 34.6561 13.8557 34.7128 12.1144 35.7643C10.3732 36.8158 10.4057 38.4666 12.188 39.4493C13.9702 40.4321 16.8281 40.3742 18.5693 39.3215Z" fill="#37474F"/>
<path d="M18.6344 38.7089C20.4179 37.6309 20.3841 35.9415 18.5585 34.9358C16.7328 33.9301 13.8074 33.9892 12.024 35.0672C10.2405 36.1453 10.2731 37.8347 12.0987 38.8403C13.9244 39.846 16.8498 39.7869 18.6344 38.7089Z" fill="#455A64"/>
<path d="M18.6984 38.0963C20.524 36.993 20.4903 35.265 18.6212 34.2376C16.7521 33.2102 13.758 33.2729 11.9324 34.3715C10.1067 35.47 10.1417 37.204 12.0095 38.2302C13.8774 39.2564 16.8727 39.1997 18.6984 38.0963Z" fill="#37474F"/>
<path opacity="0.6" d="M28.8601 20.6767C26.4822 27.3824 20.3191 29.524 20.3951 33.3249C20.4107 34.0821 19.9236 34.8515 18.9324 35.4496C16.9511 36.6494 13.699 36.7145 11.6695 35.5955C10.6566 35.0372 10.1393 34.2871 10.1248 33.5299C10.0766 31.1471 7.60581 29.5144 5.11573 27.0014C2.62566 24.4884 0.121106 21.0927 0.00293231 15.1841C-0.0525516 12.3885 0.680332 9.63372 2.11767 7.23527C3.55501 4.83682 5.63871 2.8916 8.13018 1.62234C10.6217 0.353066 13.4202 -0.188948 16.2054 0.0583519C18.9906 0.305652 21.6499 1.33227 23.8787 3.02066L25.4946 6.99031L20.0454 5.24907L23.6352 7.60168L15.6332 11.0022L25.3185 12.1706L23.6231 18.5122L27.7676 15.3215L28.8601 20.6767Z" fill="white"/>
<path opacity="0.4" d="M18.3318 35.1457C19.9899 34.1436 19.9585 32.5736 18.2619 31.6391C16.5653 30.7045 13.8461 30.7576 12.188 31.7597C10.53 32.7617 10.5614 34.3317 12.258 35.2675C13.9546 36.2032 16.6738 36.1477 18.3318 35.1457Z" fill="white"/>
<path opacity="0.5" d="M7.13671 6.15944C7.32514 6.23599 7.50271 6.33694 7.66487 6.4597C8.26779 6.91189 8.52343 7.72705 8.42938 8.47347C8.2485 9.9241 6.87865 10.843 6.09847 11.974C5.24148 13.2202 4.61195 14.6082 4.23905 16.0739C4.12932 16.5105 3.98944 17.2328 3.77359 17.6271C3.43596 18.2481 2.70401 18.359 2.30246 18.1552C1.71762 17.8598 1.4041 17.1411 1.31125 16.5768C0.761382 13.2173 1.39928 10.6838 3.04526 8.05865C3.94241 6.62972 5.37858 5.44679 7.13671 6.15944Z" fill="white"/>
<path d="M12.3051 23.9409C12.1107 23.3042 11.8529 22.6886 11.5357 22.1032C11.3741 22.1525 11.2099 22.1928 11.0437 22.2238C9.31818 22.5482 8.30044 22.0683 7.92181 21.5124C7.79279 21.3235 7.72428 21.0998 7.72535 20.8711C7.72643 20.6424 7.79705 20.4194 7.92783 20.2318C8.169 19.8555 8.59226 19.6771 9.10113 19.7434C9.85478 19.8411 10.8122 20.4753 11.6226 21.897C12.8349 21.474 13.942 20.795 14.8687 19.9062C14.6813 19.7304 14.5116 19.5365 14.3622 19.3274C13.5266 18.1119 13.5531 17.0459 13.857 16.4526C13.9527 16.2541 14.1015 16.086 14.287 15.967C14.4724 15.8479 14.6873 15.7826 14.9076 15.7782C15.1279 15.7738 15.3452 15.8306 15.5352 15.9422C15.7252 16.0538 15.8806 16.2159 15.9841 16.4104C16.3121 16.9904 16.382 18.054 15.5946 19.3045C15.4542 19.5209 15.2927 19.7229 15.1123 19.9074C16.0738 20.7585 17.2072 21.3926 18.4356 21.7668C19.1881 20.3138 20.1238 19.6421 20.869 19.5143C21.3731 19.4275 21.8084 19.589 22.0616 19.9556C22.1994 20.1378 22.2787 20.3576 22.2888 20.5859C22.2989 20.8142 22.2395 21.0401 22.1183 21.2338C21.7625 21.8054 20.7629 22.3251 19.0265 22.0707C18.8592 22.0455 18.6934 22.0117 18.5297 21.9694C18.2365 22.5686 18.0039 23.1955 17.8351 23.8409C17.1658 26.3213 16.9247 29.6289 17.0308 34.9142H16.8584C16.7522 29.6157 16.9946 26.2899 17.6687 23.7926C17.8374 23.1475 18.0675 22.52 18.356 21.9187C17.1136 21.5329 15.9673 20.8876 14.9929 20.0256C14.0534 20.9256 12.9339 21.6164 11.7082 22.0526C12.0199 22.6391 12.2747 23.254 12.4691 23.8891C13.242 26.3575 13.617 29.6711 13.7231 34.9696H13.5507C13.447 29.6916 13.072 26.3924 12.3051 23.9409ZM9.07942 19.9098C8.64049 19.8531 8.27391 20.0014 8.07374 20.3198C7.96137 20.478 7.90019 20.6668 7.89847 20.8609C7.89674 21.0549 7.95455 21.2449 8.0641 21.405C8.41259 21.9163 9.36762 22.3528 11.0124 22.0454C11.1547 22.0176 11.3006 21.9826 11.4489 21.9404C10.6603 20.5983 9.75349 19.9978 9.07942 19.9098ZM20.8967 19.6686C20.2263 19.7892 19.3388 20.4199 18.6056 21.7969C18.7552 21.8331 18.9035 21.8633 19.047 21.8838C20.7002 22.1249 21.6395 21.6522 21.9663 21.1277C22.0697 20.9632 22.1201 20.771 22.1108 20.5769C22.1016 20.3829 22.033 20.1963 21.9145 20.0424C21.8227 19.9135 21.6996 19.81 21.5568 19.7419C21.4139 19.6737 21.2561 19.6431 21.0981 19.6529C21.031 19.6548 20.9641 19.6617 20.8979 19.6734L20.8967 19.6686ZM14.0101 16.5226C13.6568 17.2111 13.8498 18.2698 14.5033 19.2188C14.6457 19.4194 14.8072 19.6055 14.9857 19.7747C15.1575 19.5989 15.3118 19.4066 15.4463 19.2008C16.0613 18.2252 16.2132 17.1592 15.8322 16.4864C15.744 16.319 15.611 16.1794 15.448 16.0833C15.2851 15.9871 15.0986 15.9382 14.9094 15.942C14.7202 15.9457 14.5358 16.002 14.3768 16.1045C14.2178 16.2071 14.0904 16.3518 14.0089 16.5226H14.0101Z" fill="#455A64"/>
<path d="M33.4822 3.3124C32.9179 2.99164 32.1401 3.04108 31.2803 3.53307C29.5535 4.53031 28.1523 6.95647 28.1523 8.95095C28.1523 9.94698 28.502 10.6464 29.0676 10.9732L30.136 11.5881C30.7015 11.9137 31.4829 11.8667 32.3451 11.3687C34.0731 10.3714 35.4731 7.94648 35.4731 5.952C35.4731 4.95718 35.1246 4.26381 34.5614 3.931C34.3263 3.79715 33.7222 3.44866 33.4822 3.3124Z" fill="white"/>
<path opacity="0.5" d="M33.4822 3.3124C32.9179 2.99164 32.1401 3.04108 31.2803 3.53307C29.5535 4.53031 28.1523 6.95647 28.1523 8.95095C28.1523 9.94698 28.502 10.6464 29.0676 10.9732L30.136 11.5881C30.7015 11.9137 31.4829 11.8667 32.3451 11.3687C34.0731 10.3714 35.4731 7.94648 35.4731 5.952C35.4731 4.95718 35.1246 4.26381 34.5614 3.931C34.3263 3.79715 33.7222 3.44866 33.4822 3.3124Z" fill="white"/>
<path d="M30.6086 11.6352C30.4132 11.9524 30.1449 12.2182 29.826 12.4106C29.4708 12.6183 29.0639 12.7208 28.6527 12.706C28.6338 12.7064 28.6151 12.7018 28.5984 12.6928L27.5337 12.0802C27.5177 12.0707 27.5044 12.0572 27.4952 12.041C27.486 12.0249 27.4812 12.0066 27.4812 11.988C27.4812 11.9694 27.486 11.9511 27.4952 11.9349C27.5044 11.9187 27.5177 11.9052 27.5337 11.8957C27.8038 11.7486 28.0341 11.5378 28.2045 11.2817C28.3749 11.0256 28.4803 10.7318 28.5116 10.4258L30.6086 11.6352Z" fill="white"/>
<path opacity="0.35" d="M30.6086 11.6352C30.4132 11.9524 30.1449 12.2182 29.826 12.4106C29.4708 12.6183 29.0639 12.7208 28.6527 12.706C28.6338 12.7064 28.6151 12.7018 28.5984 12.6928L27.5337 12.0802C27.5177 12.0707 27.5044 12.0572 27.4952 12.041C27.486 12.0249 27.4812 12.0066 27.4812 11.988C27.4812 11.9694 27.486 11.9511 27.4952 11.9349C27.5044 11.9187 27.5177 11.9052 27.5337 11.8957C27.8038 11.7486 28.0341 11.5378 28.2045 11.2817C28.3749 11.0256 28.4803 10.7318 28.5116 10.4258L30.6086 11.6352Z" fill="white"/>
<path d="M34.5584 9.03809C35.7798 6.92257 35.7796 4.63588 34.5581 3.93062C33.3365 3.22535 31.3561 4.36858 30.1347 6.4841C28.9134 8.59961 28.9135 10.8863 30.135 11.5916C31.3566 12.2968 33.337 11.1536 34.5584 9.03809Z" fill="white"/>
<path opacity="0.25" d="M34.5584 9.03809C35.7798 6.92257 35.7796 4.63588 34.5581 3.93062C33.3365 3.22535 31.3561 4.36858 30.1347 6.4841C28.9134 8.59961 28.9135 10.8863 30.135 11.5916C31.3566 12.2968 33.337 11.1536 34.5584 9.03809Z" fill="white"/>
<path d="M29.5668 10.5704C29.6234 10.9533 29.5612 11.3443 29.3887 11.6908C29.2162 12.0373 28.9417 12.3226 28.6021 12.5082C28.5815 12.5196 28.5653 12.5376 28.556 12.5592C28.5467 12.5809 28.5448 12.605 28.5508 12.6278C28.5567 12.6507 28.5701 12.6708 28.5888 12.6852C28.6075 12.6996 28.6304 12.7073 28.654 12.7072C29.0659 12.7208 29.4734 12.6179 29.8297 12.4106C30.6605 11.8836 30.7642 11.2602 30.7642 11.2602L29.5668 10.5704Z" fill="white"/>
<path opacity="0.25" d="M29.5668 10.5704C29.6234 10.9533 29.5612 11.3443 29.3887 11.6908C29.2162 12.0373 28.9417 12.3226 28.6021 12.5082C28.5815 12.5196 28.5653 12.5376 28.556 12.5592C28.5467 12.5809 28.5448 12.605 28.5508 12.6278C28.5567 12.6507 28.5701 12.6708 28.5888 12.6852C28.6075 12.6996 28.6304 12.7073 28.654 12.7072C29.0659 12.7208 29.4734 12.6179 29.8297 12.4106C30.6605 11.8836 30.7642 11.2602 30.7642 11.2602L29.5668 10.5704Z" fill="white"/>
<path d="M32.0423 5.53118L30.4265 10.1942C30.2577 10.6765 30.4844 10.8671 30.9305 10.6102L33.7655 8.97267C33.8719 8.91135 33.9651 8.82966 34.0399 8.73228C34.1147 8.6349 34.1695 8.52373 34.2013 8.40514C34.2331 8.28655 34.2413 8.16285 34.2252 8.04112C34.2092 7.91939 34.1694 7.802 34.108 7.69568L32.8153 5.46245C32.5584 5.01146 32.2099 5.04522 32.0423 5.53118Z" fill="#FAFAFA"/>
<path d="M32.5235 8.31795L32.2763 8.46024C32.2683 8.46734 32.2583 8.47179 32.2476 8.47299C32.237 8.47418 32.2263 8.47206 32.2169 8.46691C32.2075 8.46176 32.2 8.45383 32.1953 8.44422C32.1906 8.4346 32.189 8.42377 32.1907 8.41321L32.0906 6.56826C32.0905 6.54045 32.0975 6.51308 32.1107 6.48865C32.124 6.46421 32.1432 6.44349 32.1665 6.42838L32.6332 6.15948C32.6778 6.13295 32.7116 6.15948 32.7092 6.2053L32.6067 8.17807C32.6041 8.2061 32.5953 8.23321 32.5809 8.25741C32.5665 8.2816 32.5469 8.30229 32.5235 8.31795Z" fill="#455A64"/>
<path d="M32.3993 9.31033C32.2425 9.40077 32.1484 9.2838 32.1484 9.12101C32.1496 9.02659 32.1728 8.93375 32.2164 8.84997C32.26 8.76619 32.3226 8.69381 32.3993 8.63867C32.5572 8.54823 32.6513 8.6652 32.6513 8.8292C32.6504 8.92363 32.6271 9.0165 32.5833 9.10016C32.5395 9.18381 32.4764 9.25585 32.3993 9.31033Z" fill="#455A64"/>
<path d="M28.9157 44.7419C28.8283 44.7002 28.7327 44.6788 28.6359 44.6792C28.4737 44.6853 28.316 44.7344 28.1789 44.8214C28.0038 44.9244 27.8472 45.056 27.7158 45.2109C27.5727 45.3769 27.449 45.5585 27.3468 45.7524C27.2427 45.9532 27.1618 46.1651 27.1057 46.3842C27.0483 46.5982 27.0187 46.8187 27.0176 47.0402C27.0128 47.2305 27.0426 47.4201 27.1057 47.5997C27.1519 47.7358 27.2355 47.8562 27.3468 47.947L27.383 47.9723C27.2456 47.8952 26.2664 47.3393 26.1699 47.2669C26.0589 47.1758 25.9754 47.0555 25.9288 46.9196C25.8662 46.7399 25.8364 46.5504 25.8407 46.3601C25.8423 46.1386 25.8719 45.9182 25.9288 45.7041C25.9849 45.485 26.0659 45.2731 26.1699 45.0723C26.2709 44.8777 26.3948 44.696 26.5389 44.5308C26.6702 44.3763 26.8263 44.2447 27.0008 44.1414C27.1378 44.0543 27.2955 44.0052 27.4578 43.9991C27.5716 43.9978 27.6837 44.0274 27.7822 44.0847C27.7954 44.0931 28.6359 44.5767 28.9157 44.7419Z" fill="#263238"/>
<path d="M29.3401 35.71C29.2045 35.638 29.0486 35.6138 28.8976 35.6412C28.7748 35.6597 28.6554 35.6958 28.543 35.7486C28.5505 35.8207 28.5541 35.8931 28.5539 35.9656C28.5558 36.3382 28.4947 36.7084 28.373 37.0605C28.2521 37.4092 28.1016 37.7468 27.9232 38.0698C27.7436 38.3942 27.5518 38.7113 27.3468 39.0176C27.1419 39.3239 26.9562 39.6266 26.7885 39.9244C26.6281 40.2105 26.4945 40.5109 26.3894 40.8216C26.2904 41.1125 26.2547 41.4213 26.2845 41.7272L26.4159 43.3261L27.5928 44.0074L27.4638 42.4097C27.4332 42.104 27.4681 41.7952 27.5663 41.5041C27.6708 41.1927 27.8053 40.8923 27.9679 40.6069C28.1335 40.3087 28.3192 40.0064 28.525 39.7001C28.7287 39.3938 28.9217 39.0767 29.1002 38.7523C29.2792 38.4295 29.43 38.0918 29.5511 37.743C29.6723 37.3912 29.733 37.0214 29.7308 36.6493C29.7391 36.4434 29.7042 36.238 29.6283 36.0464C29.5726 35.9052 29.4712 35.7867 29.3401 35.71Z" fill="#263238"/>
<path d="M29.3846 32.6773C29.122 32.5639 28.8324 32.5283 28.5501 32.5748C28.1179 32.6462 27.7037 32.8014 27.331 33.0318C27.0068 33.2188 26.7005 33.4352 26.4158 33.6781C26.1359 33.9179 25.8735 34.1774 25.6308 34.4547C25.3896 34.7314 25.1649 35.0221 24.9579 35.3253C24.7505 35.6292 24.56 35.9343 24.3864 36.2406L24.8856 37.0087C24.9079 37.0598 24.9465 37.1022 24.9953 37.1293C25.0689 37.1679 26.0661 37.7503 26.1698 37.8082C26.1227 37.7797 26.0853 37.7377 26.0625 37.6876L25.5633 36.9194C25.7369 36.6132 25.9278 36.3081 26.136 36.0042C26.3423 35.7005 26.567 35.4097 26.8089 35.1336C27.0512 34.8563 27.3132 34.5968 27.5927 34.357C27.8775 34.1142 28.1839 33.8979 28.5079 33.7107C28.8808 33.4798 29.2955 33.3245 29.7283 33.2537C30.0224 33.2065 30.324 33.2485 30.5941 33.3743C30.2576 33.1753 29.416 32.6905 29.3846 32.6773Z" fill="#37474F"/>
<path d="M24.9953 37.1281C25.0689 37.1667 26.0661 37.7491 26.1698 37.807C26.1227 37.7785 26.0853 37.7365 26.0625 37.6864L25.5633 36.9183L24.3864 36.2382L24.8856 37.0063C24.9077 37.0579 24.9463 37.1007 24.9953 37.1281Z" fill="#263238"/>
<path d="M25.5634 36.9207C25.737 36.6144 25.9279 36.3093 26.1361 36.0054C26.3426 35.7019 26.5673 35.4112 26.809 35.1348C27.0514 34.8572 27.3138 34.5977 27.594 34.3582C27.8782 34.1146 28.1846 33.8982 28.5092 33.7119C28.8817 33.481 29.2959 33.3257 29.7284 33.2549C30.0511 33.1995 30.3831 33.2551 30.6701 33.4129C30.9488 33.5896 31.1608 33.8538 31.2731 34.1641C31.4301 34.5881 31.5034 35.0386 31.4889 35.4905C31.4927 35.9781 31.4356 36.4642 31.3189 36.9375C31.2142 37.3602 31.073 37.7729 30.8968 38.1711C30.7354 38.5338 30.5488 38.8848 30.3385 39.2214L29.7657 40.1318C29.5857 40.4164 29.4305 40.6837 29.3003 40.9337C29.1782 41.1584 29.0985 41.4037 29.0651 41.6572L28.8891 43.2574L27.5892 44.0074L27.4577 42.4109C27.4281 42.1051 27.4635 41.7965 27.5614 41.5053C27.6665 41.1944 27.8005 40.894 27.9618 40.6082C28.1282 40.3099 28.3143 40.0076 28.5201 39.7014C28.7259 39.3951 28.918 39.0787 29.0965 38.7524C29.2746 38.4296 29.4251 38.0924 29.5463 37.7443C29.6677 37.3925 29.7289 37.0227 29.7272 36.6506C29.7345 36.4446 29.6992 36.2393 29.6235 36.0476C29.5703 35.9039 29.4673 35.784 29.3332 35.7098C29.199 35.6357 29.0427 35.6122 28.8927 35.6437C28.6949 35.6772 28.5054 35.7485 28.3344 35.8535C28.0643 36.0061 27.8151 36.193 27.5928 36.4094C27.4075 36.5923 27.2351 36.7877 27.0767 36.9942C26.9368 37.1823 26.8174 37.3463 26.7149 37.4886C26.6478 37.5985 26.5587 37.6933 26.4533 37.7672C26.2688 37.8745 26.1349 37.848 26.0529 37.6912L25.5634 36.9207ZM27.0164 47.0402C27.0179 46.8186 27.0479 46.5981 27.1056 46.3842C27.1607 46.1648 27.2417 45.9526 27.3468 45.7523C27.4481 45.558 27.5719 45.3762 27.7158 45.2109C27.8466 45.0558 28.0027 44.9241 28.1776 44.8214C28.3145 44.7341 28.4724 44.6854 28.6347 44.6803C28.7668 44.6777 28.8962 44.7179 29.0036 44.7949C29.1187 44.8845 29.2054 45.0055 29.2533 45.1434C29.3191 45.3194 29.3506 45.5065 29.3461 45.6944C29.3458 45.9187 29.3146 46.1419 29.2533 46.3576C29.1938 46.5769 29.1101 46.7888 29.0036 46.9895C28.9021 47.1822 28.7782 47.3623 28.6347 47.5261C28.5041 47.6775 28.3497 47.8066 28.1776 47.9084C28.038 47.9946 27.8795 48.0455 27.7158 48.0567C27.5837 48.0646 27.4531 48.0257 27.3468 47.947C27.2345 47.857 27.1507 47.7363 27.1056 47.5997C27.0422 47.4201 27.0119 47.2305 27.0164 47.0402Z" fill="#455A64"/>
</svg>
