<svg width="20" height="20" viewBox="0 0 20 20" fill="none" xmlns="http://www.w3.org/2000/svg">
<path d="M15.8759 11.1128C16.0783 11.1131 16.2728 11.1905 16.42 11.3294C16.5671 11.4683 16.6556 11.6581 16.6675 11.8601C16.6793 12.062 16.6136 12.2609 16.4838 12.4161C16.3539 12.5712 16.1697 12.6709 15.9688 12.6948L15.8759 12.7004H5.09185L6.91195 14.5205C7.05431 14.6633 7.13696 14.855 7.14312 15.0566C7.14927 15.2581 7.07847 15.4545 6.94509 15.6058C6.81171 15.757 6.62576 15.8519 6.425 15.871C6.22423 15.8901 6.02372 15.8321 5.86418 15.7087L5.78957 15.6429L2.74945 12.6027C2.22159 12.0757 2.55974 11.1874 3.27571 11.1176L3.367 11.1128H15.8759ZM12.1397 3.40776C12.2764 3.27109 12.4582 3.18899 12.6511 3.17686C12.844 3.16473 13.0347 3.2234 13.1875 3.34187L13.2621 3.40776L16.3022 6.44788C16.83 6.97494 16.4919 7.86316 15.7759 7.93301L15.6846 7.93777H3.1757C2.97338 7.93755 2.77879 7.86008 2.63168 7.7212C2.48456 7.58231 2.39603 7.39249 2.38418 7.19053C2.37232 6.98856 2.43803 6.78969 2.56788 6.63454C2.69774 6.4794 2.88193 6.37969 3.08283 6.3558L3.1757 6.35024H13.9598L12.1397 4.53014C11.9909 4.38129 11.9073 4.17943 11.9073 3.96895C11.9073 3.75847 11.9909 3.55661 12.1397 3.40776Z" fill="#A243DC"/>
</svg>
