<svg width="36" height="36" viewBox="0 0 36 36" fill="none" xmlns="http://www.w3.org/2000/svg">
<rect width="36" height="36" rx="12" fill="#ECFCE5"/>
<path d="M11 11.5C11 10.6716 11.6716 10 12.5 10H19.5C20.3284 10 21 10.6716 21 11.5V13.2929L24.2678 16.5607C24.7366 17.0295 25 17.6654 25 18.3284V25.5C25 25.7761 24.7761 26 24.5 26C24.2239 26 24 25.7761 24 25.5V18.3284C24 17.9306 23.842 17.5491 23.5607 17.2678L21 14.7071V17.7926L21.8536 18.6462C22.0488 18.8415 22.0488 19.158 21.8536 19.3533C21.6583 19.5486 21.3417 19.5486 21.1464 19.3533L18.1465 16.3533C17.7244 15.9313 17.4891 15.9494 17.3852 15.9746C17.2126 16.0166 17.0603 16.1556 16.8456 16.361C16.7458 16.4565 16.7039 16.5518 16.7243 16.6909C16.7501 16.8659 16.8867 17.1793 17.3536 17.6462C18.3251 18.6176 18.4578 18.7504 18.5666 18.8593L18.8534 19.1462C18.9472 19.24 18.9998 19.3671 18.9999 19.4997C18.9999 20.2742 19.0059 21.053 19.2199 21.6414C19.322 21.9223 19.4612 22.127 19.6437 22.2639C19.8226 22.398 20.0866 22.4998 20.4999 22.4998C20.776 22.4998 20.9999 22.7236 20.9999 22.9998L21 24.5C21 25.3284 20.3284 26 19.5 26H12.5C11.6716 26 11 25.3284 11 24.5V11.5ZM16 15.5C14.6193 15.5 13.5 16.6193 13.5 18C13.5 19.3807 14.6193 20.5 16 20.5C16.765 20.5 17.4497 20.1564 17.9082 19.6152L17.8587 19.5657C17.7504 19.4572 17.6183 19.3251 16.6465 18.3533C16.1133 17.8202 15.8061 17.319 15.735 16.8367C15.6586 16.3184 15.8667 15.9137 16.1543 15.6385L16.1891 15.6049C16.2164 15.5785 16.2476 15.5483 16.2825 15.5158C16.1898 15.5054 16.0955 15.5 16 15.5ZM18 24.5V25H19V24.5C19 24.2239 19.2239 24 19.5 24H19.9999V23.4601C19.6342 23.3989 19.3174 23.2675 19.0501 23.0686C18.4415 23.2597 18 23.8283 18 24.5ZM12 13H12.5C13.3284 13 14 12.3284 14 11.5V11H13V11.5C13 11.7761 12.7761 12 12.5 12H12V13ZM18 11.5C18 12.3284 18.6716 13 19.5 13H20V12H19.5C19.2239 12 19 11.7761 19 11.5V11H18V11.5ZM14 24.5C14 23.6716 13.3284 23 12.5 23H12V24H12.5C12.7761 24 13 24.2239 13 24.5V25H14V24.5Z" fill="#404446"/>
</svg>
