<svg width="20" height="20" viewBox="0 0 20 20" fill="none" xmlns="http://www.w3.org/2000/svg">
<path d="M1.58691 6.35011V9.52597H2.38068V14.2878H1.58691V16.6691H14.2872L16.6684 16.6699L17.4622 16.6691V14.2878H16.6684V9.52597H17.4622V6.35011L9.52456 1.58752L1.58691 6.35011ZM4.76197 14.2878V9.52597H6.3495V14.2878H4.76197ZM8.7308 14.2878V9.52597H10.3183V14.2878H8.7308ZM14.2872 14.2878H12.6996V9.52597H14.2872V14.2878ZM11.1121 6.35011C11.112 6.55864 11.0709 6.76512 10.9911 6.95776C10.9112 7.15039 10.7942 7.32542 10.6467 7.47283C10.4992 7.62025 10.3241 7.73717 10.1315 7.81692C9.9388 7.89668 9.7323 7.9377 9.52377 7.93764C9.31524 7.93759 9.10876 7.89647 8.91613 7.81662C8.72349 7.73677 8.54847 7.61976 8.40105 7.47227C8.25364 7.32478 8.13671 7.1497 8.05696 6.95702C7.97721 6.76435 7.93619 6.55785 7.93624 6.34932C7.93634 5.92818 8.10374 5.52432 8.40161 5.2266C8.69948 4.92888 9.10342 4.76169 9.52456 4.76179C9.94571 4.7619 10.3496 4.9293 10.6473 5.22716C10.945 5.52503 11.1122 5.92897 11.1121 6.35011Z" fill="#A243DC"/>
</svg>
