<svg width="129" height="275" viewBox="0 0 129 275" fill="none" xmlns="http://www.w3.org/2000/svg">
<path d="M41.5427 57.8749C37.7492 57.8749 33.9803 57.7999 30.2602 57.675C30.2136 57.6726 30.1681 57.6589 30.1277 57.635C30.0873 57.6111 30.053 57.5776 30.0277 57.5375C30.0073 57.4969 29.9967 57.4519 29.9967 57.4063C29.9967 57.3606 30.0073 57.3157 30.0277 57.2751C35.5315 37.8369 42.8331 18.9774 51.8339 0.951407C51.9774 0.676972 52.1881 0.445215 52.4455 0.278755C52.7029 0.112295 52.9981 0.0168245 53.3024 0.00164759C53.6061 -0.0118199 53.9078 0.0574685 54.1766 0.202413C54.4454 0.347358 54.6716 0.562735 54.832 0.82644C65.2918 18.0068 74.1299 36.1631 81.227 55.0506C81.2485 55.0931 81.2597 55.1402 81.2597 55.1881C81.2597 55.2359 81.2485 55.283 81.227 55.3255C81.2052 55.3671 81.1737 55.4025 81.1353 55.4286C81.0968 55.4548 81.0527 55.4709 81.0068 55.4755C72.7468 56.4877 64.2299 57.2001 55.713 57.5625C50.8672 57.7874 46.156 57.8749 41.5427 57.8749ZM30.6763 57.0626C38.8628 57.3375 47.2451 57.3001 55.6029 56.9376C63.9607 56.5752 72.343 55.8879 80.4683 54.9006C73.3906 36.1953 64.6195 18.2051 54.2691 1.16386C54.1643 0.993588 54.0177 0.854354 53.8437 0.760061C53.6698 0.665768 53.4747 0.619714 53.2779 0.626494C53.0795 0.63759 52.8873 0.700975 52.72 0.810479C52.5528 0.919983 52.4161 1.07187 52.3234 1.25134C43.4079 19.1272 36.1405 37.8115 30.6151 57.0626H30.6763Z" fill="#A243DC"/>
<path d="M20.5443 176.108C20.4684 176.112 20.3941 176.085 20.3371 176.034C20.28 175.983 20.2447 175.911 20.2384 175.834C19.0147 165.924 18.2927 157.088 17.9623 149.015C16.7386 119.897 20.7768 89.0299 29.9178 57.2752C29.9403 57.2104 29.9816 57.154 30.0363 57.1138C30.091 57.0736 30.1564 57.0515 30.2237 57.0503C38.5326 57.3502 47.0495 57.3127 55.542 56.9378C64.0344 56.5629 72.5513 55.8756 80.799 54.8633C80.865 54.853 80.9324 54.8659 80.9903 54.9C81.0481 54.9341 81.0928 54.9873 81.1171 55.0508C88.0298 73.0448 93.2659 91.6643 96.7559 110.662C96.7629 110.703 96.7617 110.745 96.7525 110.786C96.7433 110.827 96.7262 110.865 96.7023 110.899C96.6783 110.932 96.648 110.961 96.6131 110.983C96.5781 111.004 96.5393 111.018 96.4989 111.025C96.4195 111.039 96.3375 111.021 96.2711 110.974C96.2046 110.927 96.1589 110.856 96.1441 110.775C92.7024 91.8968 87.532 73.3909 80.7011 55.5007C72.5023 56.5129 64.0711 57.2003 55.6398 57.5627C47.2086 57.9251 38.7529 57.9751 30.493 57.6751C21.4254 89.2924 17.4239 120.01 18.6354 148.99C18.9658 157.113 19.7122 165.861 20.9114 175.759C20.9186 175.841 20.8947 175.923 20.8447 175.988C20.7947 176.053 20.7223 176.096 20.6422 176.108H20.5443ZM100.28 172.659C100.24 172.658 100.2 172.648 100.164 172.631C100.127 172.614 100.095 172.589 100.067 172.559C100.04 172.529 100.019 172.494 100.005 172.455C99.9911 172.416 99.9848 172.375 99.9865 172.334C100.354 162.337 100.378 153.589 99.9865 145.466C99.9848 145.425 99.9911 145.384 100.005 145.345C100.019 145.307 100.04 145.272 100.067 145.241C100.095 145.211 100.127 145.187 100.164 145.17C100.2 145.152 100.24 145.143 100.28 145.141C100.321 145.138 100.362 145.143 100.4 145.156C100.439 145.17 100.474 145.191 100.504 145.22C100.534 145.248 100.558 145.282 100.574 145.32C100.59 145.358 100.598 145.399 100.598 145.441C100.941 153.577 100.916 162.387 100.598 172.359C100.597 172.4 100.587 172.441 100.57 172.478C100.554 172.515 100.53 172.549 100.5 172.577C100.471 172.605 100.436 172.626 100.398 172.64C100.36 172.655 100.32 172.661 100.28 172.659Z" fill="#A243DC"/>
<path d="M57.7202 138.243C50.8287 138.272 44.1875 135.607 39.1589 130.794C34.1303 125.982 31.0953 119.387 30.6766 112.362V112.124C30.6766 111.974 30.6766 111.824 30.6766 111.674C30.5255 108.033 31.0781 104.398 32.3029 100.975C33.5276 97.5524 35.4005 94.4096 37.8146 91.7261C40.2287 89.0425 43.1366 86.8709 46.3725 85.3351C49.6084 83.7993 53.1089 82.9294 56.6739 82.7751C60.239 82.6209 63.7989 83.1852 67.1504 84.436C70.502 85.6867 73.5794 87.5994 76.2071 90.0648C78.8348 92.5301 80.9613 95.4999 82.4651 98.8046C83.969 102.109 84.8208 105.684 84.9718 109.325C84.9718 109.475 84.9718 109.637 84.9718 109.8V110.012C85.1374 117.262 82.5002 124.287 77.631 129.566C72.7619 134.845 66.0527 137.954 58.9561 138.218C58.5278 138.243 58.124 138.243 57.7202 138.243ZM57.8058 83.3687H56.6556C53.1696 83.5182 49.7465 84.3678 46.5822 85.8689C43.4178 87.3701 40.5742 89.4934 38.2138 92.1175C35.8534 94.7416 34.0225 97.815 32.8258 101.162C31.6292 104.509 31.0901 108.064 31.2395 111.624C31.2395 111.762 31.2395 111.912 31.2395 112.062V112.299C31.5348 119.495 34.617 126.276 39.808 131.15C42.3783 133.564 45.389 135.437 48.6681 136.663C51.9473 137.888 55.4307 138.442 58.9194 138.293C62.4082 138.143 65.8339 137.294 69.0011 135.792C72.1684 134.291 75.015 132.167 77.3785 129.542C79.742 126.917 81.5761 123.843 82.7761 120.494C83.9761 117.145 84.5184 113.588 84.3722 110.025V109.8C84.3722 109.65 84.3722 109.5 84.3722 109.35C84.0852 102.365 81.1679 95.7635 76.2294 90.9226C71.2908 86.0817 64.7124 83.3755 57.867 83.3687H57.8058ZM57.8058 130.757C52.6158 130.642 47.6797 128.441 44.0692 124.631C40.4587 120.822 38.4652 115.712 38.5216 110.411C38.578 105.109 40.6797 100.045 44.3704 96.3163C48.0611 92.5879 53.0428 90.4967 58.2341 90.4967C63.4254 90.4967 68.4072 92.5879 72.0979 96.3163C75.7886 100.045 77.8903 105.109 77.9467 110.411C78.0031 115.712 76.0096 120.822 72.3991 124.631C68.7886 128.441 63.8525 130.642 58.6624 130.757H57.8058ZM57.8303 90.8544H57.0105C54.4875 90.9635 52.0103 91.5791 49.7203 92.6659C47.4303 93.7527 45.3723 95.2896 43.6639 97.1887C41.9554 99.0877 40.63 101.312 39.7632 103.734C38.8965 106.156 38.5054 108.729 38.6122 111.306C38.7191 113.882 39.3219 116.412 40.3861 118.751C41.4503 121.089 42.9551 123.191 44.8147 124.936C46.6743 126.68 48.8521 128.034 51.2239 128.919C53.5957 129.804 56.115 130.204 58.638 130.095C63.6375 129.84 68.343 127.605 71.7551 123.865C75.1671 120.124 77.017 115.172 76.9119 110.061C76.8068 104.95 74.7549 100.083 71.192 96.4916C67.6292 92.9006 62.836 90.8694 57.8303 90.8294V90.8544Z" fill="#A243DC"/>
<path d="M57.7568 130.757C52.5668 130.642 47.6306 128.441 44.0201 124.631C40.4096 120.822 38.4162 115.712 38.4726 110.41C38.529 105.109 40.6307 100.045 44.3214 96.3161C48.0121 92.5878 52.9938 90.4966 58.1851 90.4966C63.3764 90.4966 68.3582 92.5878 72.0489 96.3161C75.7396 100.045 77.8412 105.109 77.8976 110.41C77.954 115.712 75.9606 120.822 72.3501 124.631C68.7396 128.441 63.8035 130.642 58.6134 130.757H57.7568ZM57.7935 90.8543H56.9614C54.4385 90.9634 51.9613 91.5789 49.6713 92.6658C47.3813 93.7526 45.3233 95.2894 43.6149 97.1885C41.9064 99.0876 40.581 101.312 39.7142 103.734C38.8475 106.156 38.4564 108.729 38.5632 111.305C38.6701 113.882 39.2728 116.412 40.337 118.751C41.4013 121.089 42.9061 123.191 44.7657 124.936C46.6252 126.68 48.8031 128.034 51.1749 128.919C53.5467 129.804 56.066 130.204 58.5889 130.095C63.676 129.858 68.4639 127.572 71.9042 123.738C75.3445 119.903 77.1568 114.833 76.9443 109.637C76.7149 104.594 74.5944 99.8345 71.0223 96.3447C67.4502 92.8549 62.7003 90.9024 57.7568 90.8917L57.7935 90.8543Z" fill="#A243DC"/>
<path d="M6.88795 274.709C6.21065 274.705 5.53946 274.578 4.90558 274.334C2.31135 273.334 -0.184983 270.248 0.0108076 265.586L2.17675 223.759C2.22528 222.702 2.44013 221.66 2.81306 220.672L20.2017 175.684C20.228 175.618 20.2744 175.563 20.3341 175.527C20.3937 175.491 20.4633 175.476 20.5321 175.484C20.5986 175.497 20.6597 175.53 20.7076 175.579C20.7555 175.628 20.7881 175.691 20.8014 175.758C22.4533 189.443 24.7049 203.114 26.9198 216.323C27.6051 220.435 28.2781 224.509 28.9144 228.508L51.6996 227.521L50.4759 222.172C50.1705 220.836 50.133 219.45 50.3658 218.098C50.8387 215.315 52.2296 212.782 54.3076 210.918C56.3855 209.054 59.0254 207.972 61.7885 207.853C64.5516 207.733 67.2716 208.582 69.4967 210.26C71.7217 211.937 73.3178 214.341 74.0197 217.073C74.3615 218.398 74.4364 219.78 74.24 221.135L73.4813 226.584L96.2665 225.596C96.5765 221.547 96.9028 217.44 97.2454 213.274C98.3223 199.928 99.4358 186.118 99.9498 172.334C99.9517 172.265 99.9771 172.198 100.022 172.146C100.066 172.093 100.127 172.058 100.195 172.047C100.259 172.032 100.328 172.039 100.388 172.069C100.448 172.099 100.496 172.148 100.525 172.209L121.585 215.536C122.045 216.487 122.347 217.509 122.478 218.56L128.107 260.05C128.731 264.674 126.492 267.961 123.995 269.173C122.85 269.724 121.557 269.869 120.322 269.583C119.087 269.298 117.981 268.599 117.179 267.598L95.2753 243.554L70.9483 244.604L70.0305 251.14C69.8225 252.693 69.0872 254.121 67.9528 255.177C66.8183 256.232 65.357 256.847 63.8239 256.914C62.2909 256.981 60.7835 256.495 59.565 255.543C58.3465 254.59 57.4943 253.231 57.1572 251.702L55.7255 245.241L31.3985 246.291L11.5625 272.172C11.0287 272.936 10.3287 273.562 9.5175 274.002C8.70635 274.443 7.80621 274.685 6.88795 274.709ZM20.3486 177.058L3.40044 220.91C3.04616 221.832 2.83957 222.807 2.7886 223.797L0.634893 265.624C0.402392 269.973 2.70294 272.835 5.08914 273.747C6.15475 274.142 7.319 274.164 8.39813 273.809C9.47726 273.454 10.4098 272.742 11.0485 271.785L30.9702 245.816C30.9968 245.782 31.0302 245.755 31.0683 245.735C31.1063 245.716 31.148 245.705 31.1905 245.704L55.9091 244.629C55.9822 244.627 56.0537 244.651 56.1116 244.696C56.1696 244.742 56.2104 244.806 56.2272 244.879L57.7324 251.565C58.0429 252.949 58.8184 254.178 59.924 255.038C61.0296 255.899 62.3954 256.337 63.7843 256.276C65.1732 256.215 66.4974 255.659 67.5267 254.705C68.556 253.751 69.2254 252.458 69.4187 251.052L70.3731 244.267C70.3815 244.195 70.4141 244.128 70.4655 244.078C70.5168 244.027 70.5837 243.997 70.6546 243.992L95.3854 242.929C95.4293 242.924 95.4738 242.931 95.5145 242.948C95.5552 242.966 95.5909 242.994 95.6179 243.029L117.644 267.173C118.359 268.079 119.351 268.713 120.46 268.973C121.57 269.234 122.733 269.106 123.763 268.611C126.063 267.498 128.119 264.449 127.532 260.138L121.915 218.648C121.789 217.661 121.503 216.703 121.071 215.811L100.549 173.584C100.023 186.968 98.9341 200.365 97.8817 213.337C97.5391 217.586 97.2087 221.781 96.8906 225.921C96.8846 225.998 96.8514 226.069 96.7973 226.122C96.7431 226.175 96.6718 226.206 96.5969 226.209L73.1754 227.221C73.1302 227.221 73.0852 227.213 73.0432 227.196C73.0012 227.179 72.963 227.153 72.9306 227.121C72.9015 227.087 72.8798 227.047 72.8672 227.004C72.8545 226.961 72.8511 226.916 72.8572 226.871L73.6771 221.047C73.8594 219.775 73.7886 218.479 73.4691 217.236C72.8057 214.638 71.2908 212.35 69.1768 210.754C67.0627 209.158 64.4771 208.35 61.8504 208.464C59.2237 208.578 56.7145 209.607 54.7406 211.38C52.7668 213.154 51.4473 215.564 51.0021 218.211C50.7834 219.475 50.8167 220.771 51.1 222.022L52.3971 227.746C52.4157 227.787 52.4254 227.832 52.4254 227.877C52.4254 227.922 52.4157 227.967 52.3971 228.008C52.3693 228.045 52.3342 228.075 52.2941 228.096C52.254 228.118 52.2098 228.13 52.1646 228.133L28.7431 229.145C28.7061 229.149 28.6688 229.145 28.6334 229.133C28.598 229.122 28.5651 229.104 28.5366 229.079C28.5082 229.055 28.4848 229.025 28.4677 228.991C28.4506 228.958 28.4403 228.921 28.4372 228.883C27.7764 224.796 27.0911 220.635 26.3936 216.386C24.2154 203.602 22.0251 190.342 20.3853 177.058H20.3486Z" fill="#A243DC"/>
</svg>
