<svg width="36" height="36" viewBox="0 0 36 36" fill="none" xmlns="http://www.w3.org/2000/svg">
<rect width="36" height="36" rx="12" fill="#FFF8E6"/>
<path d="M17.2281 10.1843C17.6902 9.85652 18.309 9.85652 18.7711 10.1844L24.6226 14.3358C25.3504 14.8521 24.9863 15.9976 24.0951 16.0001L11.9067 16.0001C11.0134 16.0001 10.6477 14.8526 11.3763 14.3358L17.2281 10.1843ZM18.0001 13.8751C18.4603 13.8751 18.8334 13.502 18.8334 13.0418C18.8334 12.5815 18.4603 12.2084 18.0001 12.2084C17.5398 12.2084 17.1667 12.5815 17.1667 13.0418C17.1667 13.502 17.5398 13.8751 18.0001 13.8751ZM12.4998 17.0001V21.0001H14.4998V17.0001H12.4998ZM10.9998 24.1667C10.9998 22.9701 11.9698 22.0001 13.1664 22.0001H22.8331C24.0297 22.0001 24.9998 22.9701 24.9998 24.1667V24.5001C24.9998 24.7762 24.7759 25.0001 24.4998 25.0001H11.4998C11.2236 25.0001 10.9998 24.7762 10.9998 24.5001V24.1667ZM23.4998 17.0001V21.0001H21.4998V17.0001H23.4998ZM20.4998 17.0001V21.0001H18.4998V17.0001H20.4998ZM17.4998 17.0001V21.0001H15.4998V17.0001H17.4998Z" fill="#404446"/>
</svg>
