<svg width="64" height="64" viewBox="0 0 64 64" fill="none" xmlns="http://www.w3.org/2000/svg">
<rect width="64" height="64" rx="18" fill="white"/>
<g transform="translate(8 12) scale(1.02)">
<path d="M32.806 0.000174438H45.2611C45.5923 0.000174438 45.9217 0.000174438 46.2511 0.000174438C46.383 -0.00399804 46.5148 0.0115498 46.6422 0.046311C46.7521 0.0647266 46.8519 0.121665 46.9241 0.207064C46.9964 0.292464 47.0363 0.400826 47.0368 0.513C47.0411 0.578584 47.0411 0.644384 47.0368 0.709968C46.9998 2.08164 47.0368 3.4551 46.9593 4.825C46.8965 6.28915 46.5292 7.72371 45.8812 9.03585C44.6744 11.3906 42.7595 12.8403 40.2174 13.4721C39.2615 13.6834 38.2857 13.7893 37.3071 13.7879C34.8671 13.8571 32.4255 13.8145 29.9855 13.811C28.1921 13.811 26.3993 13.811 24.6071 13.811H12.6013C12.226 13.811 11.8526 13.8234 11.4791 13.811C10.8925 13.7897 10.6493 13.5519 10.6758 12.9592C10.7409 11.5663 10.6951 10.1715 10.7533 8.77855C10.7973 7.69256 10.9101 6.6119 11.3012 5.58448C12.2137 3.21909 13.8961 1.60963 16.2162 0.653185C17.2268 0.239415 18.3088 0.0319264 19.3996 0.0427621C21.038 0.0427621 22.6781 0.053409 24.3147 0.0303407C27.0523 0.000174437 29.7917 0.0321152 32.806 0.000174438Z" fill="#A243DC"/>
<path d="M14.5285 16.7279H27.9842C28.1495 16.7231 28.315 16.7308 28.4792 16.751C28.5736 16.7579 28.6623 16.7985 28.7295 16.8655C28.7967 16.9326 28.8379 17.0216 28.8457 17.1165C28.8688 17.2584 28.8771 17.4023 28.8703 17.546C28.7999 18.6284 28.8509 19.7144 28.8157 20.7968C28.7787 22.0052 28.673 23.2066 28.2678 24.3564C27.1703 27.4689 24.9929 29.3889 21.8359 30.2122C20.8811 30.4607 19.8981 30.4802 18.9239 30.5032C16.4939 30.56 14.0652 30.5665 11.6376 30.5228C10.6158 30.5032 9.59402 30.5103 8.57401 30.4287C6.65102 30.2903 4.82134 29.5404 3.34876 28.287C1.87619 27.0337 0.836792 25.3417 0.380434 23.455C0.197822 22.6234 0.0875928 21.7773 0.0509999 20.9264C-0.00713551 20.119 0.105612 19.3187 0.0686167 18.5131C0.0732079 18.237 0.0549406 17.961 0.0140047 17.6879C-0.0139617 17.443 0.0433219 17.1959 0.176079 16.9888C0.218742 16.9168 0.27834 16.8564 0.349616 16.8131C0.420893 16.7698 0.501658 16.7448 0.584789 16.7403C0.726761 16.7223 0.869787 16.714 1.01288 16.7155C3.26548 16.7155 5.51925 16.7208 7.7742 16.7315C10.0292 16.7421 12.2829 16.7421 14.5355 16.7315L14.5285 16.7279Z" fill="#A243DC"/>
</g>
</svg>
